<?xml version="1.0" standalone="no"?>
<!DOCTYPE svg PUBLIC "-//W3C//DTD SVG 20010904//EN"
 "http://www.w3.org/TR/2001/REC-SVG-20010904/DTD/svg10.dtd">
<svg version="1.0" xmlns="http://www.w3.org/2000/svg"
 width="700.000000pt" height="700.000000pt" viewBox="0 0 700.000000 700.000000"
 preserveAspectRatio="xMidYMid meet">
<metadata>
Created by potrace 1.14, written by Peter Selinger 2001-2017
</metadata>
<g transform="translate(0.000000,700.000000) scale(0.100000,-0.100000)"
fill="#000000" stroke="none">
<path d="M3 4543 c4 -2591 2 -2460 42 -2667 57 -286 177 -579 341 -826 323
-487 806 -831 1368 -975 305 -78 137 -73 2834 -74 l2413 -1 -4 2457 c-4 2679
0 2489 -58 2738 -67 289 -192 568 -364 813 -152 217 -384 445 -592 583 -32 21
-63 43 -69 48 -6 5 -63 38 -127 73 -195 109 -447 200 -672 244 -220 43 -177
42 -2703 43 l-2413 1 4 -2457z m4847 1513 c85 -12 213 -44 290 -71 403 -145
741 -499 863 -905 65 -215 61 -67 62 -2205 l0 -1940 -1910 0 c-1050 0 -1940 4
-1977 8 -510 55 -955 396 -1147 877 -32 82 -65 199 -83 300 -14 80 -20 3932
-6 3941 13 9 3845 4 3908 -5z"/>
</g>
</svg>
